<?xml version="1.0" encoding="utf-8"?>
<!-- Generator: Adobe Illustrator 16.0.0, SVG Export Plug-In . SVG Version: 6.00 Build 0)  -->
<!DOCTYPE svg PUBLIC "-//W3C//DTD SVG 1.1//EN" "http://www.w3.org/Graphics/SVG/1.1/DTD/svg11.dtd">
<svg version="1.1" xmlns="http://www.w3.org/2000/svg" xmlns:xlink="http://www.w3.org/1999/xlink" x="0px" y="0px" width="243px"
	 height="95px" viewBox="0 0 140 55" enable-background="new 0 0 140 55" xml:space="preserve">
<symbol  id="logo" viewBox="-179.7 -69.9 359.399 139.801">
	<g>
		<polygon fill="#FFFFFF" points="179.7,-69.9 179.7,69.9 -179.7,69.9 -179.7,-69.9 		"/>
		<polygon fill="#E73137" points="-80.85,22.575 -80.85,57.9 -168.3,57.9 -168.3,22.575 		"/>
		<polygon fill="#FFED00" points="82.049,22.575 82.049,57.9 -73.575,57.9 -73.575,22.575 		"/>
		<polygon fill="#DEDDD5" points="166.612,10.5 166.612,57.9 89.4,57.9 89.4,10.5 		"/>
		<polygon fill="#0058A2" points="166.612,-57 166.612,3.225 89.4,3.225 89.4,-57 		"/>
		<polygon fill="#FFFFFF" points="82.5,-57.3 82.5,16.051 -168.3,16.051 -168.3,-57.3 		"/>
		<polygon stroke="#000000" stroke-width="0.36" points="-167.925,-57.3 -167.925,3.301 -143.925,3.301 -143.925,-41.7 
			-133.5,-41.7 -122.325,-57.3 		"/>
		<path stroke="#000000" stroke-width="0.45" d="M-99.3-59.582c18.276,0,33.093,14.438,33.093,32.244
			c0,17.809-14.816,32.244-33.093,32.244c-18.276,0-33.092-14.436-33.092-32.244C-132.393-45.145-117.576-59.582-99.3-59.582z"/>
		<path stroke="#000000" stroke-width="0.45" d="M-30.975-59.582c18.276,0,33.092,14.438,33.092,32.244
			c0,17.809-14.816,32.244-33.092,32.244c-18.277,0-33.093-14.436-33.093-32.244C-64.067-45.145-49.251-59.582-30.975-59.582z"/>
		<polygon stroke="#000000" stroke-width="0.45" points="5.475,-57.3 5.475,3.301 28.275,3.301 28.275,-57.3 		"/>
		<polygon stroke="#000000" stroke-width="0.45" points="26.7,-24.3 49.875,3.301 75.075,3.301 51.9,-26.699 73.875,-57.3 
			47.474,-57.3 27.9,-30.9 		"/>
		<path fill="#FFFFFF" d="M-99.3-40.065c6.092,0,11.031,5.698,11.031,12.728S-93.208-14.609-99.3-14.609
			c-6.091,0-11.031-5.699-11.031-12.729S-105.392-40.065-99.3-40.065z"/>
		<path fill="#FFFFFF" d="M-30.975-40.065c6.091,0,11.03,5.698,11.03,12.728s-4.939,12.729-11.03,12.729
			c-6.093,0-11.031-5.699-11.031-12.729S-37.067-40.065-30.975-40.065z"/>
	</g>
	<g>
		<polygon fill="#E73137" points="-76.65,19.95 -76.65,57.825 -168,57.825 -168,19.95 		"/>
		<polygon fill="#FFED00" points="85.8,19.95 85.8,57.825 -75.3,57.825 -75.3,19.95 		"/>
		<polygon fill="#DEDDD5" points="166.912,6.9 166.912,57.825 87.15,57.825 87.15,6.9 		"/>
		<polygon fill="#0058A2" points="166.912,-57.075 166.912,5.7 86.7,5.7 86.7,-57.075 		"/>
	</g>
	<line fill="#FFFFFF" stroke="#000000" stroke-width="6.3" x1="-168.337" y1="19.314" x2="85.913" y2="19.314"/>
	<line fill="#FFFFFF" stroke="#000000" stroke-width="7.2" x1="-77.212" y1="57.869" x2="-77.212" y2="17.025"/>
	<line fill="#FFFFFF" stroke="#000000" stroke-width="7.2" x1="85.739" y1="57.881" x2="85.739" y2="-57.225"/>
	<line fill="#FFFFFF" stroke="#000000" stroke-width="7.2" x1="166.912" y1="6.83" x2="87.405" y2="6.881"/>
</symbol>
<g id="Calque_1">
</g>
<g id="Calque_2">
	
		<use xlink:href="#logo"  width="359.399" height="139.801" id="XMLID_1_" x="-179.7" y="-69.9" transform="matrix(0.3895 0 0 -0.3895 70 27.229)" overflow="visible"/>
	<g>
	</g>
	<g>
	</g>
	<g>
	</g>
</g>
</svg>
